# MagicaVoxel @ Ephtracy

# group
o 

# material
mtllib untitled.mtl
usemtl palette

# normals
vn -1 0 0
vn 1 0 0
vn 0 -1 0
vn 0 1 0
vn 0 0 -1
vn 0 0 1

# texcoords
vt 0.306641 0.5
vt 0.576172 0.5

# verts
v -5 -5 0
v -5 5 0
v -5 -5 10
v -5 5 10
v 5 -5 0
v 5 5 0
v 5 -5 10
v 5 5 10
v -5 -5 0
v -5 -5 10
v -4 -5 2
v -4 -5 8
v 4 -5 2
v 4 -5 8
v 5 -5 0
v 5 -5 10
v -5 5 0
v -5 5 10
v 5 5 0
v 5 5 10
v -5 -5 0
v 5 -5 0
v -5 5 0
v 5 5 0
v -5 -5 10
v 5 -5 10
v -5 5 10
v 5 5 10

# faces
f 3/1/1 2/1/1 1/1/1
f 4/1/1 2/1/1 3/1/1
f 5/1/2 6/1/2 7/1/2
f 7/1/2 6/1/2 8/1/2
f 11/1/3 10/1/3 9/1/3
f 12/1/3 10/1/3 11/1/3
f 13/1/3 11/1/3 9/1/3
f 13/2/3 12/2/3 11/2/3
f 14/1/3 10/1/3 12/1/3
f 14/2/3 12/2/3 13/2/3
f 15/1/3 13/1/3 9/1/3
f 15/1/3 14/1/3 13/1/3
f 16/1/3 10/1/3 14/1/3
f 16/1/3 14/1/3 15/1/3
f 17/1/4 18/1/4 19/1/4
f 19/1/4 18/1/4 20/1/4
f 23/1/5 22/1/5 21/1/5
f 24/1/5 22/1/5 23/1/5
f 25/1/6 26/1/6 27/1/6
f 27/1/6 26/1/6 28/1/6
